<?xml version="1.0" encoding="UTF-8" standalone="no"?>
<!DOCTYPE svg PUBLIC "-//W3C//DTD SVG 1.1//EN" "http://www.w3.org/Graphics/SVG/1.1/DTD/svg11.dtd">
<svg width="100%" height="100%" viewBox="0 0 2048 2048" version="1.1" xmlns="http://www.w3.org/2000/svg" xmlns:xlink="http://www.w3.org/1999/xlink" xml:space="preserve" xmlns:serif="http://www.serif.com/" style="fill-rule:evenodd;clip-rule:evenodd;stroke-linejoin:round;stroke-miterlimit:2;">
    <g id="Layer2" transform="matrix(1,0,0,1,0,285)">
        <g>
            <g transform="matrix(1,0,0,1,-19.3606,5.48613)">
                <path class="light" d="M1360,1960C1318.42,1964.48 1484.96,1695 1440,1600C1390.12,1494.59 1335.79,1463.51 1280,1400C1214.92,1325.91 1191.32,1215.43 1240,1160C1310.05,1080.25 1372.53,1089.66 1440,1069.1C1511.7,1047.26 1621.03,1017.34 1630.43,1000C1656.45,951.972 1629.72,928.973 1629.72,928.973C1629.72,928.973 1672.94,937.752 1669.12,969.846C1665.31,1001.94 1650.8,1019.13 1620,1040C1603.01,1051.52 1531.99,1085.16 1460,1100C1402.86,1111.78 1366.53,1129.38 1340,1160C1309.52,1195.18 1314.99,1244.95 1329.64,1280C1342.56,1310.9 1384.92,1342.87 1420.67,1370.74C1456.59,1398.74 1592.43,1503.6 1620,1620C1638.36,1697.52 1651.02,1752.62 1640,1791.17C1627.76,1834 1409.11,1954.72 1360,1960Z"/>
            </g>
            <g transform="matrix(1,0,0,1,-13,0)">
                <path class="dark" d="M1629.34,993.899C1612.47,1027.11 1593.11,1037.6 1555.7,1054.44C1522.67,1069.32 1487.47,1075.21 1452.84,1084.3C1433.83,1089.28 1419.02,1093.36 1400.18,1098.94C1366.37,1108.96 1337.11,1116.14 1303.42,1154.74C1279.79,1181.81 1268.76,1249.46 1305.88,1315.01C1316.67,1334.06 1390.24,1399.66 1408.39,1411.58C1418.04,1417.91 1450.38,1447.02 1459.44,1454.17C1501.71,1487.52 1543.09,1534.94 1573.08,1586.04C1592.64,1619.37 1619.46,1713.16 1612.66,1775.83C1607.8,1820.73 1526.01,1851.75 1489.51,1873.88C1463.72,1889.51 1429.12,1907.83 1402.03,1921.04C1384.27,1929.7 1354.26,1943.25 1335,1948.18C1339.77,1924.56 1350.13,1902.61 1358.84,1880.31C1374.56,1840.11 1393.15,1794.26 1406.84,1751.97C1420.33,1710.24 1436.93,1662.1 1424.92,1617.77C1416.17,1585.46 1395.42,1556.14 1374.5,1530.57C1354.88,1506.61 1335.41,1482.5 1314.96,1459.24C1296.32,1438.05 1274.34,1419.96 1255.59,1398.87C1249.26,1391.75 1243.63,1384.03 1238.24,1376.18C1197.31,1316.54 1170.23,1222.53 1223.71,1161.87C1241.04,1142.21 1262.31,1127.25 1284.58,1113.61C1327.55,1087.28 1375.63,1068.4 1425.11,1058.8C1441.52,1055.62 1458.05,1053.09 1474.64,1051.05C1496.87,1048.31 1521.09,1043.33 1543.15,1038.79C1578.29,1031.56 1599.17,1012.63 1629.34,993.899Z"/>
            </g>
        </g>
        <g>
            <path class="light" d="M1260,2000C1276.57,1947.53 1331.47,1866.99 1300,1680C1268.53,1493.01 1230.88,1347.58 1180,1240C1129.12,1132.42 936.936,732.343 940,580C943.064,427.657 927.074,345.168 980,240C1032.93,134.832 1080,60 1080,60C1080,60 1019.04,69.902 960,140C908.487,201.159 885.299,238.786 864.693,323.618C844.087,408.45 835.078,477.733 833.776,555.691C832.281,645.228 877.028,858.746 900,960C925.638,1073.01 982.703,1335.58 1000,1440C1015.41,1533.03 1032.22,1592.74 1016.84,1690.79C1001.12,1790.93 964.394,1864.75 940,1900C915.606,1935.25 889.618,2015.38 920,2020C1002.73,2032.59 1245.46,2046.06 1260,2000Z"/>
            <g transform="matrix(1,0,0,1,4.60102,-2.06117)">
                <path class="dark" d="M1073.77,70.847C1058.97,95.194 1021.46,158.484 980.441,240C927.516,345.168 943.505,427.657 940.441,580C937.377,732.343 1129.56,1132.42 1180.44,1240C1231.32,1347.58 1268.97,1493.01 1300.44,1680C1331.91,1866.99 1277.01,1947.53 1260.44,2000C1259.65,2002.52 1258.17,2004.86 1256.07,2007.03C1174.51,2018.04 1038.32,2008.81 980.441,2000C950.059,1995.38 982.583,1918.97 1000.44,1880C1021.45,1834.16 1044.24,1789.88 1060.44,1720C1083.34,1621.26 1081.52,1523.72 1060.44,1420C1037.57,1307.43 982.399,1000.72 960.441,940C938.484,879.285 882.698,676.821 879.936,587.314C876.964,490.996 881.257,410.067 901.864,325.235C922.47,240.403 968.928,181.159 1020.44,120C1038.65,98.382 1057.04,82.489 1073.77,70.847Z"/>
            </g>
        </g>
        <g>
            <path class="light" d="M340,1740C316.302,1663.52 369.745,1490.17 500,1380C630.255,1269.83 785.968,1138.1 740,1000C694.032,861.901 667.764,820.353 600,780C558.979,755.572 483.021,762.982 460,800C436.979,837.018 440,900 440,900C440,900 393.274,835.198 420,780C437.298,744.274 454.407,729.816 520,720C543.053,716.55 603.468,723.954 640,740C750.343,788.467 791.897,843.284 820,920C849.617,1000.85 850.479,1096.23 840,1160C830.585,1217.3 805.912,1255.15 766.837,1289.41C737.147,1315.45 668.238,1392.88 643.322,1435.36C613.526,1486.16 599.436,1533.98 600,1600C600.793,1692.86 594.477,1733.41 620,1780C671.969,1874.85 754.415,1978.85 700,1960C605.23,1927.16 557.143,1899.72 480,1860C401.745,1819.71 358.111,1798.45 340,1740Z"/>
            <g transform="matrix(1,0,0,1,-4,3)">
                <path class="dark" d="M446.787,913.926C428.906,867.079 394.838,817.539 424.76,763.263C455.528,707.451 518.989,722.566 549.663,724.825C598.311,728.408 671.849,771.935 690.526,784.281C710.668,797.595 784.254,849.459 804.65,939.241C818.87,1001.84 822.118,1057.52 818.787,1131.78C816.185,1189.78 774.397,1234.34 746.202,1277.99C733.277,1298.01 662.211,1368.58 632.015,1407.48C605.505,1441.64 567.119,1525.51 567.683,1591.53C568.476,1684.39 569.43,1754.01 587.82,1796.34C615.728,1860.58 673.184,1919.69 684.471,1954.52C599.743,1924.05 552.816,1897.49 480,1860C401.745,1819.71 358.111,1798.45 340,1740C316.302,1663.52 369.745,1490.17 500,1380C630.255,1269.83 785.968,1138.1 740,1000C694.032,861.901 667.764,820.353 600,780C564.156,758.655 530.295,760.945 506.586,771.887C488.501,780.234 465.029,799.116 457.661,820.411C448.466,846.982 446.642,883.412 446.787,913.926Z"/>
            </g>
        </g>
        <g>
            <path class="light" d="M660,1960C626.667,1876.67 674.142,1667.03 748.968,1531.13C812.531,1415.69 1002.21,767.547 1003.61,701.298C1004.78,645.836 1005.64,586.384 967.62,506.442C930.933,429.302 894.977,352.015 880,260C870.736,203.083 928.493,263.828 980,320C1048.09,394.252 1114.63,550.211 1120,620C1128.28,727.571 1120.03,897.577 1100,980C1079.97,1062.42 1014.88,1346.16 1000,1400C985.117,1453.84 950.638,1599.84 940,1760C935.333,1830.27 983.723,1981.58 960,2020C943.503,2046.72 693.333,2043.33 660,1960Z"/>
            <g transform="matrix(1,0,0,1,3,18)">
                <path class="dark" d="M861.299,200.851C883.482,215.548 969.137,244.574 1044.06,378.793C1079.41,442.137 1117.55,531.883 1125.14,613.584C1134.22,711.306 1119.54,899.613 1100,980C1079.97,1062.42 1014.88,1346.16 1000,1400C985.117,1453.84 950.638,1599.84 940,1760C935.333,1830.27 983.723,1981.58 960,2020C944.669,2044.83 714.052,2021.67 656.669,1954.49C661.288,1852.52 696.459,1681.61 731.3,1612.49C779.767,1516.35 919.202,1139.27 964.355,992.267C1001.64,870.896 1028.2,792.939 1036.44,625.597C1043.2,488.526 926.95,311.54 861.299,200.851Z"/>
            </g>
        </g>
    </g>
</svg>
